<svg width="64" height="64" viewBox="0 0 64 64" fill="none" xmlns="http://www.w3.org/2000/svg">
  <defs>
    <linearGradient id="slas-bg" x1="8" y1="6" x2="56" y2="58" gradientUnits="userSpaceOnUse">
      <stop stop-color="#245FC3"/>
      <stop offset="0.58" stop-color="#167A89"/>
      <stop offset="1" stop-color="#0F8F7B"/>
    </linearGradient>
    <filter id="slas-shadow" x="-8" y="-6" width="80" height="84" filterUnits="userSpaceOnUse">
      <feDropShadow dx="0" dy="4" stdDeviation="4" flood-color="#173A55" flood-opacity="0.2"/>
    </filter>
  </defs>
  <rect x="3" y="3" width="58" height="58" rx="14" fill="url(#slas-bg)" filter="url(#slas-shadow)"/>
  <rect x="3.5" y="3.5" width="57" height="57" rx="13.5" stroke="white" stroke-opacity="0.2"/>
  <path d="M13 27.2C19.6 24.6 25.5 25.2 31.8 29.4V48.2C25.9 43.9 19.8 42.9 13 45.2V27.2Z" fill="white"/>
  <path d="M51 27.2C44.4 24.6 38.5 25.2 32.2 29.4V48.2C38.1 43.9 44.2 42.9 51 45.2V27.2Z" fill="#EAF8F5"/>
  <path d="M32 29.5V48.2" stroke="#B8D9E5" stroke-width="1.5" stroke-linecap="round"/>
  <path d="M17 19L25 14L32 19L40 12L48 18" stroke="white" stroke-width="2.4" stroke-linecap="round" stroke-linejoin="round"/>
  <circle cx="17" cy="19" r="3" fill="#8DE0CF" stroke="white" stroke-width="1.5"/>
  <circle cx="32" cy="19" r="3" fill="#F7C857" stroke="white" stroke-width="1.5"/>
  <circle cx="48" cy="18" r="3" fill="#8DE0CF" stroke="white" stroke-width="1.5"/>
</svg>
